<?xml version="1.0" encoding="UTF-8" standalone="no"?>
<!DOCTYPE svg PUBLIC "-//W3C//DTD SVG 1.1//EN" "http://www.w3.org/Graphics/SVG/1.1/DTD/svg11.dtd">
<svg width="100%" height="100%" viewBox="0 0 841 1035" version="1.1" xmlns="http://www.w3.org/2000/svg" xmlns:xlink="http://www.w3.org/1999/xlink" xml:space="preserve" xmlns:serif="http://www.serif.com/" style="fill-rule:evenodd;clip-rule:evenodd;stroke-linejoin:round;stroke-miterlimit:2;">
    <g transform="matrix(1,0,0,1,-5308.790915,-277.149167)">
        <g transform="matrix(4.166667,0,0,4.166667,4687.5,0)">
            <g id="Design">
                <g transform="matrix(1,0,0,1,232.2946,192.1563)">
                    <path d="M0,6.688L-1.615,6.01L-44.684,-12.339C-44.684,-12.339 -42.107,-9.294 -36.292,-4.93C-35.516,0.756 -32.487,11.361 -20.759,15.334C-9.857,19.027 -3.587,12.219 -1.168,8.659C2.047,8.699 4.042,8.42 4.042,8.42L-0.004,6.696C-0.003,6.695 0,6.688 0,6.688" style="fill:rgb(5,5,5);fill-rule:nonzero;"/>
                </g>
                <g transform="matrix(1,0,0,1,312.3896,211.1834)">
                    <path d="M0,-31.366L-43.069,-13.017L-44.684,-12.339C-44.684,-12.339 -44.681,-12.332 -44.68,-12.331L-48.726,-10.607C-48.726,-10.607 -46.731,-10.328 -43.517,-10.368C-41.097,-6.808 -34.827,0 -23.926,-3.693C-12.197,-7.666 -9.168,-18.271 -8.393,-23.957C-2.577,-28.321 0,-31.366 0,-31.366" style="fill:rgb(5,5,5);fill-rule:nonzero;"/>
                </g>
                <g transform="matrix(1,0,0,1,307.6475,246.8939)">
                    <path d="M0,10.107L5.319,-25.383C0.845,-21.585 -6.461,-16.126 -6.461,-16.126C-6.461,-16.126 -29.756,-25.407 -32.41,-26.466C-32.465,-26.521 -32.506,-26.561 -32.506,-26.561L-46.028,-40.084C-52.371,-46.427 -62.655,-46.427 -68.998,-40.084C-68.998,-40.084 -82.561,-26.521 -82.618,-26.464C-85.271,-25.407 -108.565,-16.126 -108.565,-16.126C-108.565,-16.126 -116.149,-21.796 -120.589,-25.59L-115.295,10.106C-106.213,26.275 -94.366,41.099 -57.648,56.534C-20.93,41.099 -9.082,26.275 0,10.107" style="fill:rgb(5,5,5);fill-rule:nonzero;"/>
                </g>
                <g transform="matrix(1,0,0,1,303.9603,171.9554)">
                    <path d="M0,-24.71L-9.85,-31.79C-23.702,-29.314 -38.584,-28.025 -53.96,-28.025C-69.344,-28.025 -84.232,-29.315 -98.09,-31.794L-107.92,-24.713L-112.941,0.477C-94.951,4.815 -74.923,7.084 -53.96,7.084C-32.998,7.084 -12.97,4.815 5.02,0.477L0,-24.71Z" style="fill:rgb(10,147,150);fill-rule:nonzero;"/>
                </g>
                <g transform="matrix(1,0,0,1,342.0869,238.0728)">
                    <path d="M0,-94.823C-1.446,-110.939 -15.292,-135.184 -92.147,-171.557C-169.002,-135.184 -182.727,-110.939 -184.174,-94.823C-186.897,-64.48 -197.498,31.219 -190.787,40.263C-184.076,49.308 -133.115,76.734 -133.115,76.734C-141.525,70.126 -177.16,34.428 -177.16,34.428L-151.496,-94.337L-92.147,-137.082L-32.677,-94.337L-7.014,34.428C-7.014,34.428 -42.649,70.126 -51.059,76.734C-51.059,76.734 -0.097,49.308 6.613,40.263C13.324,31.219 2.723,-64.48 0,-94.823" style="fill:rgb(5,5,5);fill-rule:nonzero;"/>
                </g>
            </g>
        </g>
    </g>
</svg>
